<svg version="1.2" xmlns="http://www.w3.org/2000/svg" viewBox="0 0 80 80" width="80" height="80">
	<title>steam-svg</title>
	<defs>
		<linearGradient id="g1" x2="1" gradientUnits="userSpaceOnUse" gradientTransform="matrix(0,70.03,-70.864,0,39.591,3.485)">
			<stop offset="0" stop-color="#111d2e"/>
			<stop offset=".212" stop-color="#051839"/>
			<stop offset=".407" stop-color="#0a1b48"/>
			<stop offset=".581" stop-color="#132e62"/>
			<stop offset=".738" stop-color="#144b7e"/>
			<stop offset=".873" stop-color="#136497"/>
			<stop offset="1" stop-color="#1387b8"/>
		</linearGradient>
	</defs>
	<style>
		.s0 { fill: url(#g1) } 
		.s1 { fill: #ffffff } 
	</style>
	<path class="s0" d="m5.6 48.6c4.4 14.4 17.9 24.9 34 24.9 19.5 0 35.4-15.7 35.4-35 0-19.3-15.9-35-35.4-35-18.8 0-34.2 14.4-35.4 32.7 2.3 3.8 3.2 6.1 1.4 12.4z"/>
	<path fill-rule="evenodd" class="s1" d="m51.2 16.4c7.4 0 13.5 6 13.5 13.3 0 7.4-6.1 13.4-13.5 13.4q-0.2 0-0.3 0l-12.4 8.7c0 1.4-0.2 2.7-0.8 4-2.1 5-7.8 7.3-12.8 5.2-3.1-1.2-5.2-3.8-5.9-6.8l-13.4-5.5c-1.9-5.3-1.4-12.5-1.4-12.5l19 7.7q0.2-0.1 0.4-0.2 0.2-0.1 0.4-0.2 0.3-0.1 0.5-0.2 0.2-0.1 0.4-0.2c1.3-0.6 2.7-0.8 4.1-0.7l8.7-12.5q0-0.1 0-0.2c0-7.3 6.1-13.3 13.5-13.3zm-15.5 32.8c-0.8-1.8-2.3-3.3-4.1-4.1-1.9-0.7-3.9-0.7-5.6 0l4.5 1.8c2.8 1.2 4.2 4.4 3 7.2-1.2 2.8-4.5 4.2-7.3 3l-4.4-1.8c0.8 1.6 2.1 3 3.9 3.7 3.9 1.6 8.3-0.2 9.9-4 0.8-1.9 0.8-3.9 0.1-5.8zm24.5-19.5c0-4.9-4-8.8-9-8.8-5 0-9 3.9-9 8.8 0 4.9 4 8.9 9 8.9 5 0 9-4 9-8.9zm-9 6.7c-3.7 0-6.7-3-6.7-6.7 0-3.7 3-6.7 6.7-6.7 3.7 0 6.8 3 6.8 6.7 0 3.7-3.1 6.7-6.8 6.7z"/>
</svg>